<?xml version="1.0" encoding="utf-8"?>
<!-- Generator: Adobe Illustrator 23.0.1, SVG Export Plug-In . SVG Version: 6.00 Build 0)  -->
<svg version="1.1" id="Layer_1" xmlns="http://www.w3.org/2000/svg" xmlns:xlink="http://www.w3.org/1999/xlink" x="0px" y="0px"
	 viewBox="0 0 665.8 158.9" style="enable-background:new 0 0 665.8 158.9;" xml:space="preserve">
<style type="text/css">
	.st0{fill:#FFFFFF;}
	.st1{fill:#14B9F1;}
</style>
<title>sovos-logo_white_blue</title>
<path class="st0" d="M88.7,39.3c-3.3-4.2-7.5-7.6-12.2-10.1c-5.2-2.9-11-4.3-16.9-4.3c-5.1-0.1-10.1,1.1-14.7,3.3
	c-4.4,2.2-6.7,5.9-6.7,11.1s2.4,8.8,7.3,11c4.9,2.1,12,4.2,21.5,6.5c5.1,1.2,10.2,2.6,15.1,4.4c4.9,1.8,9.6,4.3,13.8,7.4
	c4.1,3,7.6,6.9,10.1,11.4c2.6,4.5,3.9,10,3.9,16.5c0,8.1-1.5,15-4.6,20.6c-2.9,5.5-7.1,10.2-12.2,13.7c-5.4,3.6-11.4,6.2-17.7,7.6
	c-6.9,1.6-13.9,2.4-20.9,2.4c-10.3,0-20.6-1.9-30.2-5.7c-9.3-3.4-17.6-9-24.4-16.2l21.9-20.5c3.9,5,8.8,9,14.4,11.9
	c6.1,3.2,12.8,4.8,19.7,4.7c2.5,0,4.9-0.3,7.3-0.8c2.4-0.5,4.8-1.4,6.9-2.6c2.1-1.2,3.8-2.8,5.1-4.8c1.4-2.3,2-4.9,1.9-7.5
	c0-5.6-2.5-9.5-7.6-11.9c-5.1-2.4-12.7-4.8-22.9-7.2c-4.9-1.1-9.8-2.5-14.5-4.3c-4.5-1.7-8.8-4-12.6-7C16,66,13,62.4,10.8,58.2
	C8.6,54,7.5,48.7,7.5,42.4c0-7.4,1.5-13.8,4.6-19.1c3-5.3,7.1-9.8,12.1-13.2C29.3,6.6,35,4,41,2.5C47.3,0.8,53.9,0,60.4,0
	C70,0,79.5,1.7,88.5,5c9.1,3.3,16.4,8.4,21.8,15.2L88.7,39.3z"/>
<path class="st0" d="M120.3,69.8c-0.1-9.9,1.8-19.6,5.7-28.7c3.6-8.3,8.8-15.8,15.4-22c6.6-6.2,14.5-11,23-14.1
	c18.3-6.6,38.3-6.6,56.5,0c8.5,3.1,16.4,7.9,23,14.1c6.6,6.2,11.8,13.7,15.4,22c3.9,9.1,5.8,18.8,5.7,28.7
	c0.1,9.9-1.8,19.7-5.7,28.8c-3.6,8.4-8.8,16-15.4,22.3c-6.6,6.3-14.5,11.2-23,14.5c-18.2,7-38.3,7-56.5,0c-8.5-3.3-16.4-8.2-23-14.6
	c-6.6-6.3-11.8-13.9-15.4-22.3C122.1,89.5,120.2,79.7,120.3,69.8 M154.1,69.8c0,5.3,0.8,10.5,2.4,15.5c1.5,5,3.9,9.7,7.1,13.9
	c3.2,4.1,7.3,7.5,11.9,10c10.9,5.2,23.5,5.2,34.4,0c4.6-2.4,8.7-5.9,11.9-10c3.2-4.1,5.6-8.8,7.1-13.9c1.5-5,2.3-10.3,2.4-15.5
	c0-5.2-0.8-10.4-2.4-15.4c-1.5-5-3.9-9.6-7.1-13.7c-3.2-4.1-7.3-7.5-11.9-9.8c-10.9-5-23.4-5-34.4,0c-4.6,2.4-8.7,5.7-11.9,9.8
	c-3.2,4.1-5.5,8.7-7,13.7C154.9,59.4,154.1,64.6,154.1,69.8"/>
<path class="st0" d="M407.2,69.8c-0.1-9.9,1.8-19.6,5.7-28.7c3.6-8.3,8.8-15.8,15.4-22c6.6-6.2,14.5-11,23-14.1
	c18.3-6.6,38.3-6.6,56.5,0c8.5,3.1,16.4,7.9,23,14.1c6.6,6.2,11.8,13.7,15.4,22c3.9,9.1,5.8,18.8,5.7,28.7
	c0.1,9.9-1.8,19.7-5.7,28.8c-3.6,8.4-8.8,16-15.4,22.3c-6.6,6.3-14.5,11.2-23,14.5c-18.2,7-38.3,7-56.5,0c-8.5-3.3-16.4-8.2-23-14.6
	c-6.6-6.3-11.8-13.9-15.4-22.3C409,89.5,407,79.7,407.2,69.8 M441,69.8c0,5.3,0.8,10.5,2.4,15.5c1.5,5,3.9,9.7,7.1,13.9
	c3.2,4.1,7.3,7.6,11.9,10c10.9,5.2,23.5,5.2,34.4,0c4.6-2.5,8.7-5.9,11.9-10c3.2-4.1,5.6-8.8,7.1-13.9c1.6-5,2.3-10.3,2.4-15.5
	c0-5.2-0.8-10.4-2.4-15.4c-1.5-5-3.9-9.6-7.1-13.7c-3.2-4.1-7.3-7.5-11.9-9.8c-10.9-5-23.4-5-34.4,0c-4.6,2.4-8.7,5.7-11.9,9.8
	c-3.2,4.1-5.6,8.7-7.1,13.7C441.8,59.4,441,64.6,441,69.8"/>
<path class="st0" d="M644.1,39.3c-3.3-4.2-7.5-7.6-12.2-10.1c-5.2-2.9-11-4.3-16.9-4.3c-5.1-0.1-10.1,1.1-14.7,3.3
	c-4.5,2.2-6.7,5.9-6.7,11.1s2.5,8.8,7.3,11c4.9,2.1,12,4.3,21.5,6.5c5.1,1.1,10.2,2.6,15.2,4.4c4.9,1.8,9.6,4.3,13.9,7.4
	c4.1,3,7.6,6.9,10.1,11.4c2.6,4.5,3.9,10,3.9,16.5c0,8.1-1.5,15-4.6,20.6c-2.9,5.5-7.1,10.2-12.3,13.7c-5.4,3.6-11.4,6.2-17.7,7.6
	c-6.9,1.6-13.9,2.4-20.9,2.4c-10.3,0-20.6-1.9-30.2-5.7c-9.3-3.4-17.6-9-24.4-16.2l21.9-20.5c3.9,5,8.8,9,14.4,11.9
	c6.1,3.2,12.8,4.8,19.7,4.7c2.5,0,4.9-0.3,7.3-0.8c2.4-0.5,4.7-1.4,6.9-2.7c2.1-1.2,3.8-2.8,5.1-4.8c1.3-2.3,2-4.9,1.9-7.5
	c0-5.6-2.5-9.5-7.6-11.9c-5.1-2.4-12.7-4.8-22.9-7.2c-4.9-1.1-9.8-2.5-14.5-4.3c-4.5-1.7-8.8-4-12.6-6.9c-3.7-2.9-6.7-6.5-8.9-10.7
	c-2.2-4.2-3.3-9.5-3.3-15.8c0-7.4,1.5-13.8,4.6-19.1c2.9-5.2,7-9.8,12-13.2c5.2-3.5,10.9-6.1,16.9-7.6c6.4-1.7,12.9-2.5,19.5-2.5
	c9.6,0,19.1,1.7,28.1,5c9.1,3.3,16.4,8.4,21.8,15.2L644.1,39.3z"/>
<polygon class="st1" points="319.6,127.2 335.8,158.9 415.8,0 378.9,0 319.6,127.1 "/>
<polygon class="st0" points="331.6,82.8 293.6,0 256.8,0 315.1,117.9 "/>
</svg>